<svg version="1.1" id="Layer_1" xmlns="http://www.w3.org/2000/svg" xmlns:xlink="http://www.w3.org/1999/xlink" x="0px" y="0px"
	 width="100%" viewBox="0 0 219 77" enable-background="new 0 0 219 77" xml:space="preserve">
<path fill="#343435" opacity="1.000000" stroke="none" 
	d="
M177.000000,78.000000 
	C118.000015,78.000000 59.500034,78.000000 1.000039,78.000000 
	C1.000026,52.333359 1.000026,26.666718 1.000013,1.000057 
	C73.999954,1.000038 146.999908,1.000038 219.999908,1.000019 
	C219.999939,26.666613 219.999939,52.333225 219.999969,77.999924 
	C205.833328,78.000000 191.666672,78.000000 177.000000,78.000000 
M44.451099,72.019806 
	C47.212875,72.019806 49.974651,72.019806 52.783379,72.019806 
	C52.783379,62.431095 52.783379,53.547981 52.783379,44.532505 
	C38.407948,44.532505 24.386295,44.532505 10.320889,44.532505 
	C10.320889,53.806065 10.320889,62.699863 10.320889,72.019814 
	C21.578423,72.019814 32.519897,72.019814 44.451099,72.019806 
M84.499847,44.151535 
	C77.235809,44.151535 69.971771,44.151535 62.534119,44.151535 
	C62.534119,53.760632 62.534119,62.651295 62.534119,71.619431 
	C76.908852,71.619431 90.945251,71.619431 104.852425,71.619431 
	C104.852425,62.324432 104.852425,53.440742 104.852425,44.151661 
	C98.099617,44.151661 91.799591,44.151661 84.499847,44.151535 
M157.728714,46.018806 
	C156.553696,45.385105 155.384888,44.214466 154.202682,44.200764 
	C142.384445,44.063770 130.563339,44.184120 118.744591,44.071526 
	C115.665878,44.042191 114.671814,45.266262 114.732727,48.216133 
	C114.866714,54.705936 114.895485,61.203705 114.721100,67.691612 
	C114.635307,70.883575 115.660721,72.110268 118.983940,72.065865 
	C130.468765,71.912430 141.959045,71.883469 153.442535,72.080818 
	C157.082245,72.143372 157.982162,70.733673 157.886276,67.395775 
	C157.690369,60.575703 157.814240,53.746445 157.728714,46.018806 
M166.834045,59.496037 
	C166.834045,63.588470 166.834045,67.680908 166.834045,71.730270 
	C181.520493,71.730270 195.577484,71.730270 209.527191,71.730270 
	C209.527191,62.395683 209.527191,53.365364 209.527191,44.410217 
	C195.182037,44.410217 181.253693,44.410217 166.834045,44.410217 
	C166.834045,49.264721 166.834045,53.882050 166.834045,59.496037 
M136.623489,27.340019 
	C143.760651,25.896259 145.676117,23.952906 145.562881,18.270504 
	C145.465240,13.370947 143.723907,11.280113 136.410095,10.769973 
	C125.972473,10.041944 115.465668,10.212934 104.990112,10.276991 
	C104.029984,10.282862 102.297089,12.264364 102.256531,13.377073 
	C102.001923,20.361582 101.982506,27.365763 102.270302,34.347565 
	C102.316078,35.457951 104.305389,36.488224 105.396156,37.555534 
	C106.451355,36.465435 108.058792,35.534237 108.429161,34.247082 
	C108.952545,32.428123 108.561768,30.346127 108.561768,27.500988 
	C117.876755,27.500988 126.823547,27.500988 136.623489,27.340019 
M23.640417,10.110366 
	C22.647161,10.189897 21.643383,10.203232 20.662285,10.359230 
	C11.195508,11.864480 9.957232,13.320636 9.957084,22.865572 
	C9.957061,24.363522 9.954392,25.861477 9.957554,27.359419 
	C9.971251,33.850067 11.684147,36.471294 18.023272,36.918861 
	C26.453976,37.514114 34.951530,37.345421 43.414124,37.181862 
	C45.621574,37.139198 48.733555,36.554047 49.790787,35.058884 
	C51.524639,32.606831 52.133419,29.247147 52.713562,26.175213 
	C52.847885,25.463943 51.007866,23.657280 49.980946,23.577137 
	C46.011379,23.267351 41.993538,23.305115 38.017048,23.567513 
	C37.146877,23.624931 36.372894,25.139935 35.554611,25.983671 
	C36.370743,26.658667 37.137699,27.828829 38.012241,27.915678 
	C40.620430,28.174690 43.270828,28.008657 45.763050,28.008657 
	C46.831905,31.995134 44.668041,33.027870 41.870808,33.142204 
	C36.721130,33.352699 31.562199,33.390366 26.406948,33.399349 
	C16.223753,33.417095 16.223703,33.388695 16.224485,23.226395 
	C16.225122,14.979112 16.563297,14.755498 24.792683,14.159764 
	C27.498255,13.963905 30.145075,12.956415 32.818760,12.320065 
	C30.995895,8.081082 27.273331,10.953634 23.640417,10.110366 
M186.694321,37.569908 
	C192.165970,37.398914 197.663300,37.495770 203.101288,36.973957 
	C207.621841,36.540173 210.095490,33.938290 210.097046,28.962172 
	C210.099869,19.928150 209.530670,17.542152 203.850525,17.042915 
	C195.495560,16.308578 187.015427,16.638474 178.615311,17.054459 
	C176.734406,17.147604 174.080963,19.078680 173.291641,20.839729 
	C169.296249,29.753742 173.625473,36.723412 183.266830,37.542717 
	C184.092422,37.612873 184.928177,37.563568 186.694321,37.569908 
M65.500603,16.714615 
	C58.922672,18.622137 58.360706,19.977409 58.742996,29.866369 
	C58.946400,35.127937 62.305443,36.921146 66.544632,37.100128 
	C73.996086,37.414734 81.485069,37.373657 88.934242,37.000484 
	C93.113815,36.791107 95.962471,34.610367 96.083008,29.719652 
	C96.324104,19.937819 95.728249,17.633938 89.644684,16.978115 
	C81.944382,16.148006 74.105827,16.600260 65.500603,16.714615 
M157.461395,16.606174 
	C154.191635,17.601305 151.043610,18.762835 150.997574,22.979227 
	C150.947250,27.587729 150.986130,32.197208 150.986130,36.817635 
	C155.727692,38.587318 157.378479,37.026188 157.066391,32.441582 
	C156.842072,29.146500 155.857391,24.913153 157.454605,22.768951 
	C158.981613,20.719015 163.431198,20.906263 166.539825,19.930611 
	C167.285110,19.696703 167.806961,18.750952 168.431580,18.132586 
	C167.684555,17.431356 166.970459,16.176769 166.184494,16.129993 
	C163.557220,15.973644 160.904236,16.249475 157.461395,16.606174 
z"/>
<path fill="#009EDD" opacity="1.000000" stroke="none" 
	d="
M43.956238,72.019806 
	C32.519897,72.019814 21.578423,72.019814 10.320889,72.019814 
	C10.320889,62.699863 10.320889,53.806065 10.320889,44.532505 
	C24.386295,44.532505 38.407948,44.532505 52.783379,44.532505 
	C52.783379,53.547981 52.783379,62.431095 52.783379,72.019806 
	C49.974651,72.019806 47.212875,72.019806 43.956238,72.019806 
z"/>
<path fill="#019DDC" opacity="1.000000" stroke="none" 
	d="
M84.999710,44.151596 
	C91.799591,44.151661 98.099617,44.151661 104.852425,44.151661 
	C104.852425,53.440742 104.852425,62.324432 104.852425,71.619431 
	C90.945251,71.619431 76.908852,71.619431 62.534119,71.619431 
	C62.534119,62.651295 62.534119,53.760632 62.534119,44.151535 
	C69.971771,44.151535 77.235809,44.151535 84.999710,44.151596 
z"/>
<path fill="#015CAA" opacity="1.000000" stroke="none" 
	d="
M157.767548,46.469887 
	C157.814240,53.746445 157.690369,60.575703 157.886276,67.395775 
	C157.982162,70.733673 157.082245,72.143372 153.442535,72.080818 
	C141.959045,71.883469 130.468765,71.912430 118.983940,72.065865 
	C115.660721,72.110268 114.635307,70.883575 114.721100,67.691612 
	C114.895485,61.203705 114.866714,54.705936 114.732727,48.216133 
	C114.671814,45.266262 115.665878,44.042191 118.744591,44.071526 
	C130.563339,44.184120 142.384445,44.063770 154.202682,44.200764 
	C155.384888,44.214466 156.553696,45.385105 157.767548,46.469887 
z"/>
<path fill="#FDFDFD" opacity="1.000000" stroke="none" 
	d="
M166.834045,58.997711 
	C166.834045,53.882050 166.834045,49.264721 166.834045,44.410217 
	C181.253693,44.410217 195.182037,44.410217 209.527191,44.410217 
	C209.527191,53.365364 209.527191,62.395683 209.527191,71.730270 
	C195.577484,71.730270 181.520493,71.730270 166.834045,71.730270 
	C166.834045,67.680908 166.834045,63.588470 166.834045,58.997711 
z"/>
<path fill="#F1F1F1" opacity="1.000000" stroke="none" 
	d="
M136.196915,27.420504 
	C126.823547,27.500988 117.876755,27.500988 108.561768,27.500988 
	C108.561768,30.346127 108.952545,32.428123 108.429161,34.247082 
	C108.058792,35.534237 106.451355,36.465435 105.396156,37.555534 
	C104.305389,36.488224 102.316078,35.457951 102.270302,34.347565 
	C101.982506,27.365763 102.001923,20.361582 102.256531,13.377073 
	C102.297089,12.264364 104.029984,10.282862 104.990112,10.276991 
	C115.465668,10.212934 125.972473,10.041944 136.410095,10.769973 
	C143.723907,11.280113 145.465240,13.370947 145.562881,18.270504 
	C145.676117,23.952906 143.760651,25.896259 136.196915,27.420504 
M134.753036,23.579132 
	C137.518875,23.248991 139.887680,22.242065 139.042542,18.941486 
	C138.641724,17.376146 137.109695,14.935360 136.017532,14.895788 
	C126.979179,14.568322 117.923820,14.710429 108.771507,14.710429 
	C108.771507,17.746174 108.771507,20.519588 108.771507,23.741871 
	C117.305984,23.741871 125.591461,23.741871 134.753036,23.579132 
z"/>
<path fill="#ECECEC" opacity="1.000000" stroke="none" 
	d="
M24.092007,10.109947 
	C27.273331,10.953634 30.995895,8.081082 32.818760,12.320065 
	C30.145075,12.956415 27.498255,13.963905 24.792683,14.159764 
	C16.563297,14.755498 16.225122,14.979112 16.224485,23.226395 
	C16.223703,33.388695 16.223753,33.417095 26.406948,33.399349 
	C31.562199,33.390366 36.721130,33.352699 41.870808,33.142204 
	C44.668041,33.027870 46.831905,31.995134 45.763050,28.008657 
	C43.270828,28.008657 40.620430,28.174690 38.012241,27.915678 
	C37.137699,27.828829 36.370743,26.658667 35.554611,25.983671 
	C36.372894,25.139935 37.146877,23.624931 38.017048,23.567513 
	C41.993538,23.305115 46.011379,23.267351 49.980946,23.577137 
	C51.007866,23.657280 52.847885,25.463943 52.713562,26.175213 
	C52.133419,29.247147 51.524639,32.606831 49.790787,35.058884 
	C48.733555,36.554047 45.621574,37.139198 43.414124,37.181862 
	C34.951530,37.345421 26.453976,37.514114 18.023272,36.918861 
	C11.684147,36.471294 9.971251,33.850067 9.957554,27.359419 
	C9.954392,25.861477 9.957061,24.363522 9.957084,22.865572 
	C9.957232,13.320636 11.195508,11.864480 20.662285,10.359230 
	C21.643383,10.203232 22.647161,10.189897 24.092007,10.109947 
z"/>
<path fill="#F0F0F0" opacity="1.000000" stroke="none" 
	d="
M186.226761,37.569832 
	C184.928177,37.563568 184.092422,37.612873 183.266830,37.542717 
	C173.625473,36.723412 169.296249,29.753742 173.291641,20.839729 
	C174.080963,19.078680 176.734406,17.147604 178.615311,17.054459 
	C187.015427,16.638474 195.495560,16.308578 203.850525,17.042915 
	C209.530670,17.542152 210.099869,19.928150 210.097046,28.962172 
	C210.095490,33.938290 207.621841,36.540173 203.101288,36.973957 
	C197.663300,37.495770 192.165970,37.398914 186.226761,37.569832 
M192.479523,33.430153 
	C194.635071,33.424107 196.790894,33.438370 198.946075,33.407242 
	C202.162399,33.360786 204.418991,32.469093 204.010071,28.489174 
	C203.643997,24.926088 205.335602,20.300314 199.218735,20.200933 
	C193.918060,20.114815 188.613480,20.127522 183.312973,20.224352 
	C180.178589,20.281610 178.750992,21.692301 178.792038,25.190393 
	C178.888245,33.387268 178.717819,33.412468 187.019669,33.429646 
	C188.512009,33.432735 190.004333,33.430168 192.479523,33.430153 
z"/>
<path fill="#F0F0F0" opacity="1.000000" stroke="none" 
	d="
M65.913757,16.607029 
	C74.105827,16.600260 81.944382,16.148006 89.644684,16.978115 
	C95.728249,17.633938 96.324104,19.937819 96.083008,29.719652 
	C95.962471,34.610367 93.113815,36.791107 88.934242,37.000484 
	C81.485069,37.373657 73.996086,37.414734 66.544632,37.100128 
	C62.305443,36.921146 58.946400,35.127937 58.742996,29.866369 
	C58.360706,19.977409 58.922672,18.622137 65.913757,16.607029 
M87.536148,20.605171 
	C81.579506,20.458569 75.623337,20.221870 69.666084,20.190214 
	C63.468197,20.157282 65.211998,24.856201 64.840660,28.408161 
	C64.435425,32.284294 66.461487,33.414581 69.799362,33.416096 
	C74.117577,33.418060 78.448502,33.624619 82.748924,33.350403 
	C85.081238,33.201691 89.258865,32.420174 89.336662,31.610252 
	C89.671951,28.119730 88.798050,24.513058 87.536148,20.605171 
z"/>
<path fill="#F7F7F7" opacity="1.000000" stroke="none" 
	d="
M157.861237,16.482969 
	C160.904236,16.249475 163.557220,15.973644 166.184494,16.129993 
	C166.970459,16.176769 167.684555,17.431356 168.431580,18.132586 
	C167.806961,18.750952 167.285110,19.696703 166.539825,19.930611 
	C163.431198,20.906263 158.981613,20.719015 157.454605,22.768951 
	C155.857391,24.913153 156.842072,29.146500 157.066391,32.441582 
	C157.378479,37.026188 155.727692,38.587318 150.986130,36.817635 
	C150.986130,32.197208 150.947250,27.587729 150.997574,22.979227 
	C151.043610,18.762835 154.191635,17.601305 157.861237,16.482969 
z"/>
<path fill="#404040" opacity="1.000000" stroke="none" 
	d="
M134.314987,23.660501 
	C125.591461,23.741871 117.305984,23.741871 108.771507,23.741871 
	C108.771507,20.519588 108.771507,17.746174 108.771507,14.710429 
	C117.923820,14.710429 126.979179,14.568322 136.017532,14.895788 
	C137.109695,14.935360 138.641724,17.376146 139.042542,18.941486 
	C139.887680,22.242065 137.518875,23.248991 134.314987,23.660501 
z"/>
<path fill="#343434" opacity="1.000000" stroke="none" 
	d="
M191.988098,33.430183 
	C190.004333,33.430168 188.512009,33.432735 187.019669,33.429646 
	C178.717819,33.412468 178.888245,33.387268 178.792038,25.190393 
	C178.750992,21.692301 180.178589,20.281610 183.312973,20.224352 
	C188.613480,20.127522 193.918060,20.114815 199.218735,20.200933 
	C205.335602,20.300314 203.643997,24.926088 204.010071,28.489174 
	C204.418991,32.469093 202.162399,33.360786 198.946075,33.407242 
	C196.790894,33.438370 194.635071,33.424107 191.988098,33.430183 
z"/>
<path fill="#343434" opacity="1.000000" stroke="none" 
	d="
M87.950272,20.776922 
	C88.798050,24.513058 89.671951,28.119730 89.336662,31.610252 
	C89.258865,32.420174 85.081238,33.201691 82.748924,33.350403 
	C78.448502,33.624619 74.117577,33.418060 69.799362,33.416096 
	C66.461487,33.414581 64.435425,32.284294 64.840660,28.408161 
	C65.211998,24.856201 63.468197,20.157282 69.666084,20.190214 
	C75.623337,20.221870 81.579506,20.458569 87.950272,20.776922 
z"/>
</svg>