<svg version="1.1" id="Layer_1" xmlns="http://www.w3.org/2000/svg" xmlns:xlink="http://www.w3.org/1999/xlink" x="0px" y="0px"
	 width="100%" viewBox="0 0 154 69" enable-background="new 0 0 154 69" xml:space="preserve">
<path fill="#343535" opacity="1.000000" stroke="none" 
	d="
M155.000000,2.000000 
	C155.000000,24.632431 155.000000,47.264862 155.000000,69.948647 
	C103.778481,69.948647 52.556892,69.948647 1.000000,69.948647 
	C1.000000,47.646889 1.000000,25.292103 1.468655,2.467090 
	C52.958206,1.997910 103.979103,1.998955 155.000000,2.000000 
M20.498020,60.672066 
	C25.580709,60.672066 30.663397,60.672066 35.581970,60.672066 
	C35.581970,53.223816 35.581970,46.666031 35.581970,40.312675 
	C24.904894,40.312675 14.671679,40.312675 4.381238,40.312675 
	C4.381238,47.172577 4.381238,53.598530 4.381238,60.671623 
	C9.601709,60.671623 14.552055,60.671623 20.498020,60.672066 
M120.217812,59.981007 
	C130.686127,59.981007 141.154434,59.981007 151.479767,59.981007 
	C151.479767,53.199299 151.479767,46.645966 151.479767,40.086777 
	C140.881485,40.086777 130.647964,40.086777 119.991760,40.086777 
	C119.991760,46.553253 119.991760,52.814541 120.217812,59.981007 
M42.914852,56.272266 
	C42.960827,58.373138 42.392914,60.733925 45.881290,60.695656 
	C54.512451,60.600967 63.147152,60.742149 71.774940,60.546516 
	C72.761978,60.524136 74.515533,58.998276 74.552933,58.112099 
	C74.802582,52.197556 74.682510,46.267403 74.682510,40.195053 
	C63.823994,40.195053 53.624832,40.195053 42.914387,40.195053 
	C42.914387,45.439545 42.914387,50.379459 42.914852,56.272266 
M87.717682,60.782780 
	C94.869667,60.781345 102.022385,60.720627 109.173256,60.809380 
	C111.814049,60.842152 113.195030,60.083008 113.091858,57.142262 
	C112.934502,52.657013 112.945992,48.158821 113.089317,43.672623 
	C113.178223,40.890125 112.134598,39.787163 109.326797,39.880535 
	C105.007195,40.024178 100.677765,39.844585 96.355103,39.931431 
	C91.565300,40.027664 84.743484,38.446945 82.523888,40.925480 
	C79.957191,43.791611 81.606293,50.303493 81.122108,55.202564 
	C80.684120,59.634224 82.427444,61.420609 87.717682,60.782780 
M28.993237,30.935833 
	C23.522959,31.035921 18.053001,31.173243 12.582267,31.219946 
	C9.957247,31.242359 8.596706,30.004694 8.876134,27.194803 
	C9.023443,25.713474 9.097306,24.173971 8.863789,22.715250 
	C8.182208,18.457611 10.345252,17.124289 14.147413,17.073446 
	C16.423956,17.043005 18.696735,16.731113 20.971205,16.545725 
	C20.992123,16.092243 21.013041,15.638762 21.033957,15.185281 
	C20.255854,14.778752 19.511518,14.110497 18.694563,14.005088 
	C7.070302,12.505239 3.842945,15.549185 3.874807,27.174122 
	C3.887031,31.634161 6.024418,33.807426 9.981966,34.053604 
	C16.098713,34.434093 22.273987,34.711693 28.374298,34.296391 
	C35.278877,33.826340 36.688370,31.208248 34.738201,23.953222 
	C32.005047,23.953222 29.177092,23.779985 26.388422,24.035501 
	C25.215534,24.142971 24.125664,25.156485 22.998053,25.758114 
	C24.050940,26.248457 25.062382,26.977779 26.167082,27.169359 
	C27.585243,27.415300 29.078341,27.229145 31.246332,27.229145 
	C30.638634,28.706430 30.246649,29.659327 28.993237,30.935833 
M77.028900,29.476625 
	C78.302757,28.717989 79.543365,27.376709 80.856239,27.301786 
	C86.478676,26.980921 92.141220,27.281609 97.751396,26.857006 
	C101.156479,26.599291 104.046204,25.256660 104.275322,20.825455 
	C104.508293,16.319672 101.845566,14.651540 98.315918,14.528831 
	C89.785912,14.232288 81.238625,14.432592 72.128815,14.432592 
	C72.128815,19.914286 71.974937,25.190180 72.232353,30.445932 
	C72.300362,31.834583 73.451973,34.152412 74.424606,34.333626 
	C77.566963,34.919083 76.946503,32.238605 77.028900,29.476625 
M51.656364,18.344913 
	C49.995682,18.410603 48.330688,18.421743 46.675140,18.552477 
	C42.178692,18.907545 39.776649,20.894888 39.982330,25.888344 
	C40.246094,32.292042 40.927925,33.917076 46.482651,34.326721 
	C51.759445,34.715874 57.105785,34.454136 62.404022,34.161430 
	C66.154190,33.954254 67.836037,31.600193 67.971405,27.819357 
	C68.221329,20.838938 66.521927,18.772625 59.584110,18.378050 
	C57.260517,18.245899 54.923531,18.349268 51.656364,18.344913 
M151.794998,30.709452 
	C151.888016,29.550720 152.046646,28.392927 152.063248,27.233103 
	C152.159531,20.505623 150.797318,18.785128 144.221970,18.456020 
	C139.584915,18.223927 134.914032,18.501945 130.265457,18.712025 
	C125.603065,18.922731 124.212326,21.683029 124.256668,26.092196 
	C124.299530,30.354328 124.757126,34.005665 129.959290,34.220375 
	C135.426575,34.446033 140.924652,34.496708 146.378372,34.144764 
	C148.095627,34.033947 149.713104,32.377129 151.794998,30.709452 
M120.719101,18.844954 
	C118.280136,18.814934 115.586060,18.124926 113.474251,18.941252 
	C111.379189,19.751112 109.043083,21.781904 108.315895,23.814915 
	C107.424271,26.307663 107.906700,29.378239 108.196999,32.157009 
	C108.289093,33.038536 109.667961,33.785625 110.457970,34.594242 
	C111.271339,33.774090 112.544868,33.072247 112.793106,32.106789 
	C113.192177,30.554655 113.069809,28.811199 112.890381,27.179077 
	C112.472084,23.374302 113.444077,21.141500 117.898087,21.511124 
	C118.921440,21.596050 120.063171,20.254593 120.719101,18.844954 
z"/>
<path fill="#FFFFFF" opacity="1.000000" stroke="none" 
	d="
M155.000000,1.500000 
	C103.979103,1.998955 52.958206,1.997910 1.468655,1.998433 
	C2.333333,1.666667 3.666379,1.043211 5.000041,1.041887 
	C54.999992,0.992262 105.000000,1.000000 155.000000,1.500000 
z"/>
<path fill="#019CDB" opacity="1.000000" stroke="none" 
	d="
M20.000210,60.671844 
	C14.552055,60.671623 9.601709,60.671623 4.381238,60.671623 
	C4.381238,53.598530 4.381238,47.172577 4.381238,40.312675 
	C14.671679,40.312675 24.904894,40.312675 35.581970,40.312675 
	C35.581970,46.666031 35.581970,53.223816 35.581970,60.672066 
	C30.663397,60.672066 25.580709,60.672066 20.000210,60.671844 
z"/>
<path fill="#F9F9F9" opacity="1.000000" stroke="none" 
	d="
M120.104782,59.528419 
	C119.991760,52.814541 119.991760,46.553253 119.991760,40.086777 
	C130.647964,40.086777 140.881485,40.086777 151.479767,40.086777 
	C151.479767,46.645966 151.479767,53.199299 151.479767,59.981007 
	C141.154434,59.981007 130.686127,59.981007 120.104782,59.528419 
z"/>
<path fill="#029BD9" opacity="1.000000" stroke="none" 
	d="
M42.914619,55.795822 
	C42.914387,50.379459 42.914387,45.439545 42.914387,40.195053 
	C53.624832,40.195053 63.823994,40.195053 74.682510,40.195053 
	C74.682510,46.267403 74.802582,52.197556 74.552933,58.112099 
	C74.515533,58.998276 72.761978,60.524136 71.774940,60.546516 
	C63.147152,60.742149 54.512451,60.600967 45.881290,60.695656 
	C42.392914,60.733925 42.960827,58.373138 42.914619,55.795822 
z"/>
<path fill="#025CA8" opacity="1.000000" stroke="none" 
	d="
M87.248215,60.782318 
	C82.427444,61.420609 80.684120,59.634224 81.122108,55.202564 
	C81.606293,50.303493 79.957191,43.791611 82.523888,40.925480 
	C84.743484,38.446945 91.565300,40.027664 96.355103,39.931431 
	C100.677765,39.844585 105.007195,40.024178 109.326797,39.880535 
	C112.134598,39.787163 113.178223,40.890125 113.089317,43.672623 
	C112.945992,48.158821 112.934502,52.657013 113.091858,57.142262 
	C113.195030,60.083008 111.814049,60.842152 109.173256,60.809380 
	C102.022385,60.720627 94.869667,60.781345 87.248215,60.782318 
z"/>
<path fill="#EAEAEA" opacity="1.000000" stroke="none" 
	d="
M29.423950,30.774029 
	C30.246649,29.659327 30.638634,28.706430 31.246332,27.229145 
	C29.078341,27.229145 27.585243,27.415300 26.167082,27.169359 
	C25.062382,26.977779 24.050940,26.248457 22.998053,25.758114 
	C24.125664,25.156485 25.215534,24.142971 26.388422,24.035501 
	C29.177092,23.779985 32.005047,23.953222 34.738201,23.953222 
	C36.688370,31.208248 35.278877,33.826340 28.374298,34.296391 
	C22.273987,34.711693 16.098713,34.434093 9.981966,34.053604 
	C6.024418,33.807426 3.887031,31.634161 3.874807,27.174122 
	C3.842945,15.549185 7.070302,12.505239 18.694563,14.005088 
	C19.511518,14.110497 20.255854,14.778752 21.033957,15.185281 
	C21.013041,15.638762 20.992123,16.092243 20.971205,16.545725 
	C18.696735,16.731113 16.423956,17.043005 14.147413,17.073446 
	C10.345252,17.124289 8.182208,18.457611 8.863789,22.715250 
	C9.097306,24.173971 9.023443,25.713474 8.876134,27.194803 
	C8.596706,30.004694 9.957247,31.242359 12.582267,31.219946 
	C18.053001,31.173243 23.522959,31.035921 29.423950,30.774029 
z"/>
<path fill="#F3F3F3" opacity="1.000000" stroke="none" 
	d="
M77.027359,29.909779 
	C76.946503,32.238605 77.566963,34.919083 74.424606,34.333626 
	C73.451973,34.152412 72.300362,31.834583 72.232353,30.445932 
	C71.974937,25.190180 72.128815,19.914286 72.128815,14.432592 
	C81.238625,14.432592 89.785912,14.232288 98.315918,14.528831 
	C101.845566,14.651540 104.508293,16.319672 104.275322,20.825455 
	C104.046204,25.256660 101.156479,26.599291 97.751396,26.857006 
	C92.141220,27.281609 86.478676,26.980921 80.856239,27.301786 
	C79.543365,27.376709 78.302757,28.717989 77.027359,29.909779 
M94.243599,24.063046 
	C96.662537,23.873991 99.553490,24.352772 99.422646,20.488453 
	C99.294891,16.715681 96.345474,17.128820 93.993813,17.072666 
	C88.428513,16.939777 82.857887,17.029968 77.277222,17.029968 
	C77.277222,19.635906 77.277222,21.700216 77.277222,24.123186 
	C82.778214,24.123186 88.036331,24.123186 94.243599,24.063046 
z"/>
<path fill="#DFDFDF" opacity="1.000000" stroke="none" 
	d="
M52.124516,18.344948 
	C54.923531,18.349268 57.260517,18.245899 59.584110,18.378050 
	C66.521927,18.772625 68.221329,20.838938 67.971405,27.819357 
	C67.836037,31.600193 66.154190,33.954254 62.404022,34.161430 
	C57.105785,34.454136 51.759445,34.715874 46.482651,34.326721 
	C40.927925,33.917076 40.246094,32.292042 39.982330,25.888344 
	C39.776649,20.894888 42.178692,18.907545 46.675140,18.552477 
	C48.330688,18.421743 49.995682,18.410603 52.124516,18.344948 
M47.710190,21.703459 
	C43.164829,22.298353 44.593967,25.915171 44.899906,28.304646 
	C45.048317,29.463778 47.402744,31.006411 48.904549,31.191772 
	C52.343826,31.616266 55.873981,31.255884 59.365231,31.321310 
	C62.964722,31.388763 63.078594,29.168560 63.135387,26.389353 
	C63.196415,23.402655 62.582878,21.557713 59.148396,21.652124 
	C55.658207,21.748066 52.163197,21.668444 47.710190,21.703459 
z"/>
<path fill="#DFDFDF" opacity="1.000000" stroke="none" 
	d="
M151.585632,31.068672 
	C149.713104,32.377129 148.095627,34.033947 146.378372,34.144764 
	C140.924652,34.496708 135.426575,34.446033 129.959290,34.220375 
	C124.757126,34.005665 124.299530,30.354328 124.256668,26.092196 
	C124.212326,21.683029 125.603065,18.922731 130.265457,18.712025 
	C134.914032,18.501945 139.584915,18.223927 144.221970,18.456020 
	C150.797318,18.785128 152.159531,20.505623 152.063248,27.233103 
	C152.046646,28.392927 151.888016,29.550720 151.585632,31.068672 
M143.335602,21.663746 
	C140.339371,21.661385 137.341476,21.720474 134.347336,21.640259 
	C131.012787,21.550924 128.768005,21.907537 128.770859,26.403397 
	C128.773575,30.708353 130.636139,31.502794 134.161453,31.365274 
	C137.153275,31.248564 140.204788,31.660048 143.127853,31.195618 
	C144.642242,30.955004 146.971542,29.447144 147.111969,28.290712 
	C147.401535,25.905949 148.873459,22.270487 143.335602,21.663746 
z"/>
<path fill="#E4E4E4" opacity="1.000000" stroke="none" 
	d="
M120.934769,19.207260 
	C120.063171,20.254593 118.921440,21.596050 117.898087,21.511124 
	C113.444077,21.141500 112.472084,23.374302 112.890381,27.179077 
	C113.069809,28.811199 113.192177,30.554655 112.793106,32.106789 
	C112.544868,33.072247 111.271339,33.774090 110.457970,34.594238 
	C109.667961,33.785625 108.289093,33.038536 108.196999,32.157009 
	C107.906700,29.378239 107.424271,26.307663 108.315895,23.814915 
	C109.043083,21.781904 111.379189,19.751112 113.474251,18.941252 
	C115.586060,18.124926 118.280136,18.814934 120.934769,19.207260 
z"/>
<path fill="#343434" opacity="1.000000" stroke="none" 
	d="
M93.769028,24.093117 
	C88.036331,24.123186 82.778214,24.123186 77.277222,24.123186 
	C77.277222,21.700216 77.277222,19.635906 77.277222,17.029968 
	C82.857887,17.029968 88.428513,16.939777 93.993813,17.072666 
	C96.345474,17.128820 99.294891,16.715681 99.422646,20.488453 
	C99.553490,24.352772 96.662537,23.873991 93.769028,24.093117 
z"/>
<path fill="#343434" opacity="1.000000" stroke="none" 
	d="
M48.190243,21.684582 
	C52.163197,21.668444 55.658207,21.748066 59.148396,21.652124 
	C62.582878,21.557713 63.196415,23.402655 63.135387,26.389353 
	C63.078594,29.168560 62.964722,31.388763 59.365231,31.321310 
	C55.873981,31.255884 52.343826,31.616266 48.904549,31.191772 
	C47.402744,31.006411 45.048317,29.463778 44.899906,28.304646 
	C44.593967,25.915171 43.164829,22.298353 48.190243,21.684582 
z"/>
<path fill="#343434" opacity="1.000000" stroke="none" 
	d="
M143.815002,21.682644 
	C148.873459,22.270487 147.401535,25.905949 147.111969,28.290712 
	C146.971542,29.447144 144.642242,30.955004 143.127853,31.195618 
	C140.204788,31.660048 137.153275,31.248564 134.161453,31.365274 
	C130.636139,31.502794 128.773575,30.708353 128.770859,26.403397 
	C128.768005,21.907537 131.012787,21.550924 134.347336,21.640259 
	C137.341476,21.720474 140.339371,21.661385 143.815002,21.682644 
z"/>
</svg>