<?xml version="1.0" standalone="no"?>
<!DOCTYPE svg PUBLIC "-//W3C//DTD SVG 20010904//EN"
 "http://www.w3.org/TR/2001/REC-SVG-20010904/DTD/svg10.dtd">
<svg version="1.0" xmlns="http://www.w3.org/2000/svg"
 width="60.000000pt" height="60.000000pt" viewBox="0 0 60.000000 60.000000"
 preserveAspectRatio="xMidYMid meet">

<g transform="translate(0.000000,60.000000) scale(0.100000,-0.100000)"
fill="#000000" stroke="none">
<path d="M125 450 c3 -5 17 -10 29 -10 21 0 25 -7 35 -61 7 -33 9 -73 6 -89
-4 -18 -2 -31 7 -37 7 -4 13 -17 13 -28 0 -13 7 -20 20 -20 14 0 20 6 19 23 0
19 4 22 42 22 37 0 42 -2 37 -20 -3 -13 1 -22 11 -26 24 -9 44 12 38 41 -4 24
-7 25 -88 25 -111 0 -109 18 3 22 l86 3 12 35 c7 20 16 50 20 68 l7 32 -112 0
c-89 0 -112 3 -116 15 -4 9 -19 15 -41 15 -20 0 -32 -4 -28 -10z m260 -87 c-8
-27 -15 -49 -15 -50 0 -2 -33 -3 -74 -3 l-74 0 -6 36 c-4 19 -10 42 -13 50 -4
12 12 14 95 14 l101 0 -14 -47z"/>
<path d="M85 80 c10 -11 20 -20 23 -20 3 0 -3 9 -13 20 -10 11 -20 20 -23 20
-3 0 3 -9 13 -20z"/>
<path d="M499 73 c-13 -16 -12 -17 4 -4 16 13 21 21 13 21 -2 0 -10 -8 -17
-17z"/>
<path d="M139 41 c13 -12 28 -21 34 -21 12 0 11 0 -28 24 l-30 17 24 -20z"/>
<path d="M435 34 c-22 -13 -35 -24 -30 -24 12 0 75 38 75 45 0 6 2 7 -45 -21z"/>

</g>
</svg>
